<?xml version="1.0" encoding="UTF-8"?><svg id="a" xmlns="http://www.w3.org/2000/svg" viewBox="0 0 578.63 96.2"><defs><style>.b{fill:#fff;}.c{fill:#f15a29;stroke:#fff;stroke-miterlimit:10;}</style></defs><path class="c" d="M.72,77.77c.45-1.61,1.2-3.64,2.47-5.82,1.77-3.04,3.86-5.13,5.4-6.44,1.52-5.54,3.05-11.08,4.57-16.61,4.15-4.73,7.13-8.95,9.14-12.05,4.46-6.87,5.42-10.15,9.35-14.12,4.02-4.07,8.57-6.24,12.05-7.48,3.02-2.54,14.42-11.5,31.15-11.21,12.46,.21,21.43,5.43,25.13,7.89,.98-.84,2.4-2,4.15-3.32,5.38-4.04,9.48-7.11,13.29-7.89,8.07-1.65,16.04,6.73,17.86,8.72,1.29,.07,3.24,.13,5.61,0,7.62-.4,9.16-2.14,13.71-1.45,1.17,.18,5.52,.83,8.72,4.15,2.57,2.67,2.06,4.62,4.36,7.27,1.48,1.71,4.2,3.77,9.55,4.57-.48,1.18-.97,2.35-1.45,3.53-.81-.08-2.29-.22-4.15-.42-4.87-.5-6.15-.68-8.12-.5-1,.1-2.51,.32-4.34,.91-.26-1.16-.8-2.9-2.08-4.57-1.78-2.34-3.56-2.67-5.61-4.78-1.06-1.09-2.41-2.88-3.32-5.82-.75,.17-1.74,.52-2.18,1.36-.72,1.36,.56,2.95,1.14,5.08,.42,1.55,.59,3.85-.62,7.06-5.25-.31-8.85-1.78-11.21-3.12-3.22-1.83-5.07-3.94-9.76-6.02-2.2-.98-4.11-1.54-5.4-1.87,.32,1.43,2.58,12.39-4.78,21.18-4.3,5.14-9.72,6.95-12.05,7.58,.54,1.47,1.16,3.65,1.25,6.33,.11,3.37-.65,6.06-1.25,7.68,1.49,1.92,3.27,3.97,5.4,6.02,4.82,4.65,9.73,7.73,13.71,9.76,2.17,.1,4.62,.07,7.27-.21,5.89-.61,10.74-2.2,14.33-3.74,.64,.75,1.33,1.79,1.04,2.7-.46,1.42-2.96,1.32-5.4,2.49-1.64,.79-3.68,2.36-5.4,5.82-1.86-.15-4.56-.15-7.68,.62-2.44,.6-4.39,1.5-5.82,2.28-.85-4.56-2.7-6.97-4.15-8.31-2.22-2.05-4.34-2.35-8.93-4.36-3.63-1.59-6.45-3.21-8.31-4.36-3.28-.13-8.38,.02-14.12,1.87-9.58,3.08-12.65,8.21-20.77,11.63-4.5,1.89-11.53,3.69-21.81,2.08,2.46,3.25,4.75,4.27,6.44,4.57,1.9,.34,3.41-.15,5.4,.83,1.56,.76,2.54,1.99,3.12,2.91-.97,.06-2.26,.3-3.12,1.25-.86,.95-.52,1.74-1.25,2.49-1.11,1.13-2.98,.42-5.61,.42-1.44,0-3.5,.2-6.02,1.21-.98-1.27-1.54-2.47-1.87-3.5-.93-2.88-.17-4.62-.83-8.1-.31-1.61-.8-2.94-1.25-3.95-1.72-.41-4.25-.78-7.27-.42-5.15,.63-8.75,3.08-10.38,4.36-1.52-1.8-3.05-3.6-4.57-5.4,1.15-1.62,2.71-3.51,4.78-5.4,2.86-2.61,5.69-4.31,7.89-5.4-.14-1.8-.28-3.6-.42-5.4-4.02,.63-6.54,2.1-8.1,3.32-3.09,2.43-3.41,4.68-6.85,6.02-1.75,.68-2.7,.5-4.57,1.66-1.49,.93-1.93,1.69-3.53,2.7-1.53,.96-2.97,1.42-3.92,1.66Z"/><g><path class="b" d="M215.69,72.01c-.48,.05-.91,.1-1.28,.16s-.84,.19-1.4,.37c-.64,.2-1.06,.54-1.26,1s-.3,.96-.3,1.47v3.85c0,.78,0,1.4,.02,1.88,.02,.47,.04,1.06,.07,1.76-1.55,.93-3.85,1.81-6.89,2.64-3.04,.82-5.83,1.24-8.38,1.24-2.39,0-4.64-.37-6.74-1.1-2.1-.73-3.94-1.83-5.53-3.29-1.59-1.45-2.83-3.24-3.74-5.39s-1.36-4.61-1.36-7.38c0-2.58,.43-4.97,1.28-7.17,.85-2.19,2.09-4.08,3.71-5.67,1.59-1.57,3.52-2.79,5.8-3.64,2.28-.86,4.8-1.28,7.57-1.28,1.88,0,3.62,.23,5.22,.7,1.6,.47,2.92,.96,3.96,1.49l1.45-1.28h2.03l.21,12.08h-2.05c-1.18-3.63-2.6-6.33-4.24-8.09-1.65-1.76-3.73-2.64-6.25-2.64-2.99,0-5.29,1.31-6.92,3.92-1.62,2.61-2.44,6.22-2.44,10.81,0,4.87,.8,8.68,2.39,11.44s3.85,4.13,6.78,4.13c1.37,0,2.58-.21,3.65-.62s1.89-.89,2.48-1.43v-6.72c0-.56-.1-1.03-.3-1.41-.2-.38-.61-.71-1.21-.99-.47-.22-1.05-.4-1.75-.54-.7-.14-1.28-.24-1.75-.3v-1.82h17.19v1.82Z"/><path class="b" d="M243.79,84.98c-.68,.3-1.49,.57-2.42,.82-.93,.25-1.92,.37-2.96,.37-1.91,0-3.31-.28-4.21-.85-.9-.57-1.51-1.38-1.84-2.44h-.14c-.53,.53-1.04,.98-1.53,1.35-.49,.37-1.02,.69-1.58,.96-.73,.34-1.44,.6-2.11,.77-.68,.17-1.62,.26-2.84,.26-1.81,0-3.35-.53-4.63-1.6-1.28-1.07-1.92-2.48-1.92-4.24,0-1.01,.14-1.87,.42-2.58,.28-.71,.68-1.34,1.19-1.88,.47-.5,1.01-.91,1.62-1.24s1.29-.63,2.02-.91c1.4-.51,3.08-1.05,5.05-1.6s3.4-1.05,4.3-1.48v-2.24c0-.39-.03-.9-.09-1.54-.06-.64-.19-1.17-.4-1.61-.22-.5-.56-.92-1.03-1.26-.47-.34-1.08-.51-1.84-.51-.68,0-1.26,.1-1.71,.29-.46,.19-.83,.39-1.11,.59,.05,.31,.18,.79,.4,1.42,.22,.64,.33,1.25,.33,1.84,0,.26-.07,.59-.21,.99s-.34,.71-.61,.94c-.36,.31-.76,.55-1.2,.72-.44,.17-1.13,.26-2.05,.26-1.31,0-2.3-.31-2.97-.94-.67-.63-1.01-1.45-1.01-2.46,0-.87,.35-1.65,1.04-2.34s1.54-1.26,2.53-1.71c.98-.47,2.11-.83,3.38-1.08,1.27-.26,2.46-.38,3.55-.38,1.51,0,2.89,.09,4.15,.27,1.26,.18,2.39,.55,3.41,1.11,.96,.54,1.73,1.33,2.3,2.37,.57,1.03,.85,2.38,.85,4.05,0,1.76-.04,3.84-.1,6.25s-.1,4-.1,4.76c0,.7,.1,1.25,.31,1.66s.53,.71,.97,.91c.26,.12,.68,.2,1.25,.22,.57,.02,1.08,.04,1.55,.04v1.7Zm-11.57-12.15c-.87,.3-1.74,.64-2.6,1.02-.86,.38-1.56,.78-2.11,1.2-.58,.44-1.03,.99-1.36,1.67-.33,.68-.49,1.48-.49,2.4,0,1.22,.28,2.1,.83,2.64,.55,.55,1.24,.82,2.05,.82,.86,0,1.56-.18,2.12-.53,.55-.35,1.04-.78,1.46-1.3l.09-7.93Z"/><path class="b" d="M259.84,85.47h-14.69v-1.7c.41-.03,.8-.07,1.19-.12,.38-.05,.72-.12,1.02-.23,.5-.19,.84-.45,1.02-.8,.18-.35,.27-.81,.27-1.39v-25.84c0-.59-.12-1.14-.36-1.64-.24-.51-.56-.89-.97-1.15-.31-.2-.78-.4-1.41-.58-.63-.19-1.19-.29-1.67-.33v-1.7l11.75-.61,.35,.37v31.18c0,.58,.1,1.04,.31,1.4,.2,.36,.53,.64,.99,.84,.31,.14,.64,.26,.99,.37,.34,.11,.75,.19,1.22,.23v1.7Z"/><path class="b" d="M276.28,85.47h-14.69v-1.7c.41-.03,.8-.07,1.19-.12,.38-.05,.72-.12,1.02-.23,.5-.19,.84-.45,1.02-.8,.18-.35,.27-.81,.27-1.39v-25.84c0-.59-.12-1.14-.36-1.64-.24-.51-.56-.89-.97-1.15-.31-.2-.78-.4-1.41-.58-.63-.19-1.19-.29-1.67-.33v-1.7l11.75-.61,.35,.37v31.18c0,.58,.1,1.04,.31,1.4,.2,.36,.53,.64,.99,.84,.31,.14,.64,.26,.99,.37,.34,.11,.75,.19,1.22,.23v1.7Z"/><path class="b" d="M302.29,65.08c1.15,1.07,2.03,2.36,2.64,3.85s.91,3.11,.91,4.85-.3,3.35-.9,4.89c-.6,1.53-1.47,2.84-2.62,3.93-1.23,1.17-2.69,2.06-4.4,2.68s-3.65,.93-5.84,.93c-1.9,0-3.64-.27-5.24-.82-1.59-.54-3-1.36-4.23-2.45-1.18-1.04-2.11-2.33-2.8-3.86s-1.03-3.25-1.03-5.14,.3-3.53,.9-4.98c.6-1.45,1.5-2.75,2.69-3.88,1.15-1.09,2.57-1.93,4.26-2.53,1.69-.6,3.57-.9,5.66-.9s4.09,.3,5.75,.9c1.66,.6,3.07,1.44,4.26,2.53Zm-5.97,16.16c.34-.87,.59-1.93,.76-3.17,.16-1.24,.24-2.69,.24-4.34,0-1.09-.08-2.33-.23-3.73-.16-1.4-.39-2.5-.7-3.31-.37-.98-.89-1.75-1.55-2.31-.66-.56-1.5-.84-2.51-.84-1.1,0-1.99,.3-2.65,.91-.66,.61-1.17,1.39-1.53,2.36-.33,.89-.55,1.92-.68,3.11-.12,1.19-.19,2.43-.19,3.72,0,1.69,.05,3.1,.16,4.21,.11,1.11,.37,2.23,.79,3.35,.36,.96,.87,1.73,1.54,2.29,.67,.56,1.52,.84,2.54,.84,.93,0,1.73-.26,2.4-.78,.67-.52,1.2-1.29,1.59-2.3Z"/><path class="b" d="M337.25,74.11c0,3.28-1.09,6.1-3.28,8.44-2.19,2.35-4.96,3.52-8.32,3.52-1.49,0-2.7-.15-3.63-.46-.93-.3-1.7-.67-2.31-1.11h-.19v6.55c0,.54,.12,1.02,.36,1.42,.24,.4,.58,.7,1.01,.89,.42,.17,1.01,.33,1.78,.47,.77,.14,1.41,.23,1.92,.26v1.73h-16.86v-1.73c.39-.03,.88-.09,1.47-.17,.59-.09,1.03-.18,1.33-.27,.5-.17,.84-.46,1.01-.87,.18-.41,.27-.88,.27-1.41v-23.86c-.05-.51-.17-.96-.36-1.35s-.5-.73-.92-1.03c-.31-.2-.72-.37-1.24-.5-.51-.13-1.02-.22-1.52-.27v-1.7l11.38-.61,.35,.3v2.59l.19,.05c1.02-1.04,2.16-1.85,3.41-2.43s2.49-.86,3.72-.86c3.21,0,5.75,1.14,7.62,3.42,1.86,2.28,2.8,5.28,2.8,8.99Zm-8.37,.09c0-1.17-.08-2.28-.26-3.35-.17-1.06-.47-2.02-.91-2.86-.42-.84-.97-1.51-1.66-2.01-.69-.5-1.53-.75-2.52-.75s-1.81,.17-2.42,.52c-.6,.35-1.13,.8-1.58,1.36v13.22c.09,.31,.27,.71,.53,1.2,.26,.49,.53,.88,.79,1.18,.39,.42,.83,.73,1.33,.93,.5,.2,1.04,.3,1.63,.3,1.54,0,2.76-.83,3.69-2.48,.92-1.66,1.38-4.09,1.38-7.29Z"/><path class="b" d="M355,85.47h-14.74v-1.7c.4-.03,.8-.07,1.19-.12,.39-.05,.72-.12,1-.23,.5-.19,.85-.45,1.05-.8,.2-.35,.3-.81,.3-1.39v-13.57c0-.54-.12-1.02-.37-1.43-.25-.41-.56-.74-.93-.99-.28-.19-.7-.37-1.27-.54-.57-.17-1.08-.28-1.55-.33v-1.7l11.43-.61,.35,.35v18.52c0,.54,.12,1.01,.35,1.39,.23,.38,.57,.66,1,.85,.31,.14,.65,.26,1.03,.37,.37,.11,.76,.19,1.17,.23v1.7Zm-3.41-31.81c0,1.18-.45,2.19-1.36,3.02-.91,.83-1.99,1.25-3.23,1.25s-2.34-.42-3.25-1.25c-.91-.83-1.36-1.84-1.36-3.02s.46-2.19,1.36-3.03,1.99-1.26,3.25-1.26,2.34,.42,3.24,1.26c.9,.84,1.35,1.85,1.35,3.03Z"/><path class="b" d="M387.93,85.47h-14.02v-1.7c.3-.03,.65-.07,1.07-.12,.42-.05,.74-.12,.96-.23,.33-.17,.56-.42,.7-.75,.14-.33,.21-.81,.21-1.45v-10.92c0-1.59-.29-2.78-.88-3.58-.58-.8-1.45-1.2-2.58-1.2-.62,0-1.2,.09-1.74,.28-.54,.19-1.06,.46-1.58,.82-.45,.31-.81,.63-1.09,.96-.27,.33-.5,.61-.69,.86v12.52c0,.54,.08,1,.23,1.36,.16,.37,.41,.64,.77,.83,.25,.14,.56,.26,.93,.37,.37,.11,.74,.19,1.1,.23v1.7h-14.18v-1.7c.39-.03,.78-.07,1.18-.13,.4-.05,.73-.13,1.01-.22,.5-.17,.84-.44,1.03-.79,.19-.36,.28-.82,.28-1.4v-13.57c0-.48-.12-.96-.37-1.42s-.58-.85-.98-1.14c-.28-.19-.63-.34-1.06-.47-.43-.12-.9-.21-1.41-.26v-1.7l11.13-.61,.35,.35v3.38h.09c.44-.39,.96-.85,1.59-1.4s1.2-.99,1.73-1.33c.58-.37,1.33-.69,2.26-.96,.93-.26,1.93-.4,2.99-.4,2.53,0,4.44,.72,5.7,2.16,1.27,1.44,1.9,3.35,1.9,5.73v11.43c0,.58,.09,1.03,.26,1.38,.17,.34,.49,.61,.96,.82,.25,.11,.55,.22,.92,.33,.37,.11,.78,.19,1.25,.23v1.7Z"/><path class="b" d="M416.22,64.94h-5.13c.61,.68,1.06,1.4,1.37,2.16,.3,.76,.45,1.55,.45,2.37,0,1.07-.29,2.08-.86,3.02-.58,.94-1.33,1.71-2.26,2.3-.95,.61-2.06,1.08-3.33,1.42-1.28,.34-2.66,.51-4.15,.51h-3.8c-.19,.14-.39,.36-.62,.67-.23,.31-.34,.6-.34,.88,0,.69,.27,1.17,.82,1.43,.54,.27,1.53,.41,2.96,.45,1.42,.03,2.85,.09,4.29,.17,1.45,.09,2.48,.14,3.1,.15,.9,.05,1.8,.23,2.68,.55,.89,.32,1.66,.73,2.31,1.25,.72,.54,1.31,1.24,1.77,2.09,.47,.85,.7,1.82,.7,2.93,0,1.18-.28,2.29-.85,3.34-.57,1.04-1.43,1.94-2.6,2.71-1.23,.79-2.7,1.41-4.42,1.84-1.72,.44-3.84,.65-6.38,.65-4.09,0-7.2-.5-9.33-1.49-2.13-1-3.2-2.49-3.2-4.48,0-1.23,.57-2.24,1.72-3.03,1.15-.79,2.94-1.23,5.36-1.31v-.28c-1.43-.48-2.54-1.13-3.34-1.93s-1.2-1.73-1.2-2.79c0-.65,.16-1.21,.48-1.66,.32-.45,.73-.85,1.22-1.19,.43-.3,.96-.55,1.59-.76,.62-.21,1.14-.38,1.56-.5v-.26c-2.1-.78-3.64-1.73-4.63-2.85-.99-1.12-1.48-2.49-1.48-4.1,0-2.29,1.05-4.11,3.16-5.48,2.11-1.37,4.78-2.05,8.01-2.05,1.06,0,2.08,.09,3.07,.27,.99,.18,1.74,.34,2.25,.48h9.05v2.54Zm-7.04,24.05c0-.53-.15-1.05-.44-1.57-.29-.52-.95-.94-1.98-1.27-.56-.09-1.48-.16-2.76-.19s-3.04-.05-5.27-.05c-.54,.47-1,1.02-1.36,1.66-.37,.64-.55,1.41-.55,2.31,0,.39,.11,.82,.33,1.28,.22,.47,.56,.9,1.02,1.31,.54,.45,1.15,.8,1.82,1.06,.67,.26,1.68,.38,3.03,.38,2,0,3.53-.39,4.59-1.17s1.58-2.03,1.58-3.75Zm-3.9-19.62c0-1.82-.29-3.26-.87-4.31-.58-1.06-1.47-1.59-2.67-1.59-.61,0-1.14,.14-1.59,.43-.45,.29-.82,.7-1.1,1.25-.27,.53-.45,1.15-.54,1.85-.09,.71-.14,1.43-.14,2.18,0,1.69,.3,3.09,.89,4.17s1.44,1.63,2.53,1.63,1.99-.49,2.59-1.47,.9-2.36,.9-4.15Z"/><path class="b" d="M466.88,72.01c-.48,.05-.91,.1-1.28,.16-.37,.06-.84,.19-1.4,.37-.64,.2-1.06,.54-1.26,1-.2,.47-.3,.96-.3,1.47v3.85c0,.78,0,1.4,.02,1.88,.02,.47,.04,1.06,.07,1.76-1.56,.93-3.85,1.81-6.89,2.64-3.04,.82-5.83,1.24-8.38,1.24-2.39,0-4.64-.37-6.74-1.1-2.1-.73-3.94-1.83-5.53-3.29-1.59-1.45-2.83-3.24-3.74-5.39-.91-2.15-1.36-4.61-1.36-7.38,0-2.58,.43-4.97,1.28-7.17s2.09-4.08,3.71-5.67c1.59-1.57,3.52-2.79,5.8-3.64,2.28-.86,4.8-1.28,7.57-1.28,1.88,0,3.62,.23,5.22,.7,1.6,.47,2.92,.96,3.96,1.49l1.45-1.28h2.03l.21,12.08h-2.05c-1.18-3.63-2.6-6.33-4.25-8.09-1.65-1.76-3.73-2.64-6.25-2.64-2.99,0-5.29,1.31-6.92,3.92-1.62,2.61-2.44,6.22-2.44,10.81,0,4.87,.8,8.68,2.39,11.44s3.85,4.13,6.78,4.13c1.37,0,2.58-.21,3.65-.62s1.89-.89,2.48-1.43v-6.72c0-.56-.1-1.03-.3-1.41-.2-.38-.61-.71-1.21-.99-.47-.22-1.05-.4-1.75-.54-.7-.14-1.28-.24-1.75-.3v-1.82h17.19v1.82Z"/><path class="b" d="M492.14,65.08c1.15,1.07,2.03,2.36,2.64,3.85s.91,3.11,.91,4.85-.3,3.35-.9,4.89c-.6,1.53-1.47,2.84-2.62,3.93-1.23,1.17-2.69,2.06-4.4,2.68-1.7,.62-3.65,.93-5.84,.93-1.9,0-3.64-.27-5.24-.82-1.59-.54-3.01-1.36-4.23-2.45-1.18-1.04-2.12-2.33-2.8-3.86-.68-1.53-1.03-3.25-1.03-5.14s.3-3.53,.9-4.98c.6-1.45,1.5-2.75,2.69-3.88,1.15-1.09,2.57-1.93,4.26-2.53,1.69-.6,3.57-.9,5.66-.9s4.09,.3,5.75,.9c1.66,.6,3.07,1.44,4.26,2.53Zm-5.97,16.16c.34-.87,.59-1.93,.76-3.17,.16-1.24,.25-2.69,.25-4.34,0-1.09-.08-2.33-.23-3.73s-.39-2.5-.7-3.31c-.37-.98-.89-1.75-1.55-2.31-.66-.56-1.5-.84-2.51-.84-1.1,0-1.99,.3-2.65,.91s-1.17,1.39-1.53,2.36c-.33,.89-.55,1.92-.68,3.11-.12,1.19-.19,2.43-.19,3.72,0,1.69,.05,3.1,.16,4.21,.11,1.11,.37,2.23,.79,3.35,.36,.96,.87,1.73,1.54,2.29,.67,.56,1.52,.84,2.54,.84,.93,0,1.73-.26,2.4-.78,.67-.52,1.2-1.29,1.59-2.3Z"/><path class="b" d="M522.51,65.08c1.15,1.07,2.03,2.36,2.64,3.85s.91,3.11,.91,4.85-.3,3.35-.9,4.89c-.6,1.53-1.47,2.84-2.62,3.93-1.23,1.17-2.69,2.06-4.4,2.68-1.7,.62-3.65,.93-5.84,.93-1.9,0-3.64-.27-5.24-.82-1.59-.54-3.01-1.36-4.23-2.45-1.18-1.04-2.12-2.33-2.8-3.86-.68-1.53-1.03-3.25-1.03-5.14s.3-3.53,.9-4.98c.6-1.45,1.5-2.75,2.69-3.88,1.15-1.09,2.57-1.93,4.26-2.53,1.69-.6,3.57-.9,5.66-.9s4.09,.3,5.75,.9c1.66,.6,3.07,1.44,4.26,2.53Zm-5.97,16.16c.34-.87,.59-1.93,.76-3.17,.16-1.24,.25-2.69,.25-4.34,0-1.09-.08-2.33-.23-3.73s-.39-2.5-.7-3.31c-.37-.98-.89-1.75-1.55-2.31-.66-.56-1.5-.84-2.51-.84-1.1,0-1.99,.3-2.65,.91s-1.17,1.39-1.53,2.36c-.33,.89-.55,1.92-.68,3.11-.12,1.19-.19,2.43-.19,3.72,0,1.69,.05,3.1,.16,4.21,.11,1.11,.37,2.23,.79,3.35,.36,.96,.87,1.73,1.54,2.29,.67,.56,1.52,.84,2.54,.84,.93,0,1.73-.26,2.4-.78,.67-.52,1.2-1.29,1.59-2.3Z"/><path class="b" d="M539.86,86.26c-1.51,0-2.98-.22-4.42-.66-1.44-.44-2.55-.91-3.35-1.41l-.7,1.59h-1.82l-.3-8.7h1.7c.23,.7,.62,1.49,1.17,2.37,.54,.88,1.17,1.67,1.87,2.37,.73,.7,1.57,1.29,2.51,1.77,.94,.48,1.95,.72,3.02,.72,1.42,0,2.47-.28,3.16-.83,.69-.55,1.04-1.4,1.04-2.55,0-.62-.16-1.13-.47-1.54-.31-.4-.74-.75-1.28-1.05-.61-.31-1.27-.57-1.99-.79-.72-.22-1.61-.48-2.67-.79s-1.96-.63-2.72-.94c-.75-.32-1.54-.82-2.34-1.5-.7-.61-1.26-1.34-1.68-2.19-.42-.85-.63-1.87-.63-3.06,0-2.19,.92-3.96,2.76-5.32,1.84-1.35,4.26-2.03,7.24-2.03,1.42,0,2.72,.14,3.91,.43,1.19,.29,2.19,.6,3,.94l.49-1.38h1.77l.37,7.95h-1.63c-.54-1.62-1.48-3.01-2.8-4.19-1.32-1.17-2.74-1.76-4.27-1.76-1.2,0-2.14,.25-2.82,.75-.68,.5-1.03,1.19-1.03,2.08,0,1.18,.5,2.04,1.5,2.57,1,.53,2.4,1.03,4.2,1.49,2.78,.72,4.81,1.69,6.1,2.93,1.29,1.24,1.93,2.81,1.93,4.72,0,2.55-1,4.52-3,5.92s-4.61,2.1-7.83,2.1Z"/><path class="b" d="M578.63,79.89c-.54,.89-1.2,1.72-1.97,2.51s-1.64,1.46-2.62,2.02c-1.04,.59-2.1,1.04-3.16,1.34-1.07,.3-2.29,.46-3.67,.46-2.3,0-4.29-.33-5.96-.98-1.67-.65-3.05-1.53-4.14-2.64-1.09-1.1-1.9-2.41-2.44-3.91-.54-1.5-.8-3.13-.8-4.89,0-1.59,.29-3.11,.87-4.56,.58-1.45,1.41-2.75,2.48-3.88,1.06-1.1,2.39-2,4-2.68s3.41-1.03,5.4-1.03c2.18,0,3.96,.26,5.36,.79,1.4,.53,2.56,1.26,3.48,2.19,.89,.89,1.53,1.93,1.94,3.14s.61,2.47,.61,3.79v1.52h-15.77c0,3.19,.61,5.61,1.84,7.28,1.23,1.66,3.18,2.5,5.85,2.5,1.46,0,2.78-.4,3.94-1.2,1.17-.8,2.16-1.82,2.99-3.04l1.77,1.28Zm-8.91-8.86c0-.93-.05-1.89-.14-2.87-.09-.98-.26-1.78-.49-2.4-.26-.73-.63-1.28-1.08-1.66-.46-.37-1.04-.56-1.74-.56-1.2,0-2.15,.61-2.87,1.82s-1.1,3.13-1.17,5.76l7.49-.09Z"/></g><g><path class="b" d="M198.73,25.47h-.91c-.24-.71-.63-1.47-1.16-2.27-.53-.81-1.02-1.24-1.47-1.31-.25-.03-.55-.06-.92-.08-.36-.02-.68-.04-.94-.04h-.55v12.98c0,.28,.05,.53,.15,.74s.3,.38,.59,.51c.18,.07,.46,.14,.83,.22,.38,.07,.7,.13,.96,.16v.91h-9.22v-.91c.23-.02,.54-.06,.95-.1,.41-.04,.69-.1,.83-.16,.3-.12,.5-.29,.61-.5,.1-.21,.15-.46,.15-.75v-13.1h-.55c-.26,0-.58,.01-.94,.04-.36,.02-.67,.05-.92,.08-.45,.06-.94,.5-1.47,1.31s-.92,1.57-1.16,2.27h-.91v-4.73h16.04v4.73Z"/><path class="b" d="M214.72,37.29h-7.01v-.85c.16-.02,.34-.04,.55-.06s.37-.06,.47-.12c.16-.09,.28-.21,.34-.37s.1-.4,.1-.72v-5.46c0-.8-.15-1.4-.45-1.8s-.73-.59-1.28-.59c-.31,0-.6,.05-.87,.14-.27,.09-.53,.23-.79,.41-.23,.16-.41,.31-.54,.48-.14,.16-.25,.31-.34,.43v6.26c0,.29,.04,.52,.1,.68,.07,.17,.2,.31,.4,.41,.12,.07,.27,.13,.46,.19,.19,.05,.38,.09,.55,.12v.85h-7.11v-.85c.2-.02,.4-.04,.59-.06,.19-.02,.36-.06,.51-.12,.25-.09,.42-.23,.51-.4,.09-.17,.13-.41,.13-.69v-13c0-.25-.06-.51-.17-.79s-.28-.49-.49-.63c-.16-.1-.38-.18-.68-.24-.3-.06-.56-.1-.79-.11v-.85l5.81-.3,.18,.19v8.02h.05c.29-.26,.56-.5,.8-.72,.24-.21,.53-.43,.87-.65,.29-.19,.66-.35,1.12-.48s.96-.2,1.5-.2c1.26,0,2.2,.36,2.84,1.08s.95,1.68,.95,2.86v5.71c0,.29,.04,.52,.13,.69,.09,.17,.24,.31,.48,.41,.14,.06,.3,.12,.47,.16,.17,.05,.38,.09,.63,.12v.85Z"/><path class="b" d="M228.33,34.5c-.27,.44-.6,.86-.99,1.25-.38,.39-.82,.73-1.31,1.01-.52,.3-1.05,.52-1.58,.67-.53,.15-1.15,.23-1.84,.23-1.15,0-2.14-.16-2.98-.49-.84-.33-1.53-.77-2.07-1.32-.54-.55-.95-1.2-1.22-1.95-.27-.75-.4-1.56-.4-2.44,0-.79,.15-1.55,.44-2.28s.71-1.37,1.24-1.94c.53-.55,1.2-1,2-1.34s1.7-.51,2.7-.51c1.09,0,1.98,.13,2.68,.4s1.28,.63,1.74,1.1c.44,.44,.77,.97,.97,1.57,.2,.6,.3,1.23,.3,1.9v.76h-7.88c0,1.59,.31,2.81,.92,3.64,.61,.83,1.59,1.25,2.93,1.25,.73,0,1.39-.2,1.97-.6s1.08-.91,1.49-1.52l.89,.64Zm-4.45-4.43c0-.47-.02-.94-.07-1.43-.05-.49-.13-.89-.24-1.2-.13-.37-.31-.64-.54-.83s-.52-.28-.87-.28c-.6,0-1.08,.3-1.43,.91s-.55,1.57-.58,2.88l3.74-.05Z"/></g></svg>