<?xml version="1.0" encoding="UTF-8"?><svg id="a" xmlns="http://www.w3.org/2000/svg" viewBox="0 0 508.15 219.1"><defs><style>.b,.c,.d{fill:#fdfefe;}.c{font-size:180px;}.c,.d{font-family:MicrosoftSansSerif, 'Microsoft Sans Serif';}.d{font-size:60px;}</style></defs><g><path class="b" d="M125.55,75.07c.79-2.52,7.82-26.34-7.63-47.33-10.97-14.9-29.46-23.2-48.09-20.91-23.46,2.89-35.61,21.16-37.4,23.97-12.95,20.22-7.02,41.23-6.11,44.27-3.9,1.34-12.06,4.77-18.32,12.98C-.13,98.7-3.18,114.96,4.17,128.51c9.66,17.8,30.75,18.9,34.35,19.08,1.28,.07,2.53,.07,3.75,.03-12.07-14.41-17.63-22.09-16.67-23.02,.37-.35,1.68,.27,3.93,1.86l18.95,20.5c9.8-1.76,17.37-6.56,22.09-10.39v-59.5h9.92v59.06c2.72,2.36,5.65,4.3,8.69,5.85l32.35-34.99c2.25-1.6,3.57-2.22,3.93-1.86,1.28,1.24-8.91,14.33-30.54,39.26,15.44,5.19,32.59,1.22,42.05-9.78,13.59-15.79,10.55-45.12-11.45-59.54Z"/><path class="b" d="M80.51,151.39v-15.25c-1.6-1.39-3.14-2.9-4.58-4.58-.62,.69-2.45,2.66-5.34,5.01v34.28l-22.09-23.89c-1.98,.36-4.06,.59-6.22,.66,7.15,8.54,16.59,19.44,28.31,32.7v31.74h9.92v-51.21c5.28-5.97,10.08-11.45,14.43-16.47-1.95-.65-3.86-1.46-5.74-2.41l-8.69,9.4Z"/></g><text class="c" transform="translate(133.27 154.42)"><tspan x="0" y="0">Tree</tspan></text><text class="d" transform="translate(167.9 203.69)"><tspan x="0" y="0">Photography</tspan></text></svg>